<?xml version="1.0" standalone="no"?>
<!DOCTYPE svg PUBLIC "-//W3C//DTD SVG 20010904//EN"
 "http://www.w3.org/TR/2001/REC-SVG-20010904/DTD/svg10.dtd">
<svg version="1.0" xmlns="http://www.w3.org/2000/svg"
 width="700.000000pt" height="700.000000pt" viewBox="0 0 700.000000 700.000000"
 preserveAspectRatio="xMidYMid meet">
<metadata>
Created by potrace 1.11, written by Peter Selinger 2001-2013
</metadata>
<g transform="translate(0.000000,700.000000) scale(0.100000,-0.100000)"
fill="#000000" stroke="none">
<path d="M0 3500 l0 -3500 3500 0 3500 0 0 3500 0 3500 -3500 0 -3500 0 0
-3500z m2580 1300 c123 -15 222 -44 330 -97 81 -40 109 -61 190 -142 81 -81
103 -111 143 -191 26 -52 59 -140 74 -195 23 -89 26 -119 27 -280 0 -154 -3
-193 -22 -268 -72 -287 -228 -474 -479 -577 -141 -57 -191 -64 -525 -68 l-307
-4 -3 -351 c-2 -273 -6 -358 -17 -378 -26 -51 -42 -54 -330 -54 -240 0 -270 2
-294 18 -16 10 -32 29 -38 43 -6 16 -8 483 -7 1259 3 1199 4 1233 22 1254 11
12 33 25 50 30 44 13 1082 13 1186 1z"/>
<path d="M2010 3894 l0 -275 223 3 c207 3 225 5 264 25 111 60 160 207 118
351 -20 66 -66 119 -130 148 -47 23 -61 24 -262 24 l-213 0 0 -276z"/>
</g>
</svg>
