<?xml version="1.0" standalone="no"?>
<!DOCTYPE svg PUBLIC "-//W3C//DTD SVG 20010904//EN"
 "http://www.w3.org/TR/2001/REC-SVG-20010904/DTD/svg10.dtd">
<svg version="1.0" xmlns="http://www.w3.org/2000/svg"
 width="1200.000000pt" height="1200.000000pt" viewBox="0 0 1200.000000 1200.000000"
 preserveAspectRatio="xMidYMid meet">
<metadata>
Created by potrace 1.14, written by Peter Selinger 2001-2017
</metadata>
<g transform="translate(0.000000,1200.000000) scale(0.100000,-0.100000)"
fill="#000000" stroke="none">
<path d="M7944 10560 c-220 -37 -396 -113 -497 -214 -68 -69 -64 -63 -127
-160 -59 -92 -83 -137 -198 -366 -91 -182 -120 -242 -187 -395 -15 -33 -35
-78 -45 -100 -10 -22 -30 -69 -44 -105 -15 -36 -31 -74 -36 -85 -29 -64 -55
-126 -110 -265 -34 -85 -67 -168 -74 -185 -7 -16 -27 -66 -44 -110 -180 -468
-250 -632 -318 -737 -58 -88 -94 -113 -156 -109 -27 2 -96 68 -136 131 -33 51
-162 302 -162 315 0 18 -128 257 -179 335 -34 51 -61 97 -61 101 0 5 -4 9 -8
9 -4 0 -15 13 -25 29 -18 31 -95 136 -139 191 -16 19 -32 40 -36 45 -51 71
-237 296 -346 420 -69 77 -90 101 -206 229 -113 125 -469 475 -585 574 -205
176 -335 254 -485 290 -195 47 -471 48 -670 1 -144 -33 -253 -81 -301 -132
-119 -124 -174 -418 -112 -591 32 -89 67 -153 158 -286 57 -84 210 -290 257
-344 5 -6 49 -63 99 -126 50 -63 98 -124 107 -135 15 -17 283 -354 315 -395 7
-9 32 -42 57 -75 25 -33 47 -62 50 -65 3 -3 197 -259 430 -570 685 -912 989
-1296 1173 -1484 101 -102 177 -228 177 -294 0 -34 -13 -75 -150 -472 -45
-129 -85 -246 -90 -260 -5 -14 -35 -101 -68 -195 -33 -93 -81 -231 -107 -305
-25 -74 -51 -144 -56 -155 -28 -65 -254 -742 -299 -900 -44 -154 -82 -322 -87
-387 -5 -67 -3 -80 16 -111 53 -86 16 -223 -154 -582 -131 -274 -164 -367
-166 -460 -1 -52 11 -81 56 -130 73 -79 85 -149 40 -217 -71 -107 -18 -338
111 -486 77 -88 141 -109 219 -73 57 27 103 75 189 198 41 59 107 146 145 193
39 47 80 104 91 127 42 86 30 195 -39 349 -42 94 -49 124 -30 124 6 0 48 -27
94 -60 94 -68 154 -98 187 -94 13 1 28 3 35 3 7 1 22 11 33 24 30 31 21 90
-26 163 -61 95 -58 128 19 269 35 64 30 176 -12 280 -49 118 -52 132 -35 150
18 18 16 18 51 4 47 -17 98 -13 159 15 219 101 509 443 495 586 -1 14 -13 41
-25 60 -37 57 -39 70 -12 70 13 0 37 -5 55 -11 41 -15 75 -5 109 31 56 58 80
117 186 445 152 474 260 552 536 387 123 -73 136 -84 570 -432 621 -500 1619
-982 2215 -1070 212 -32 415 4 455 81 8 14 7 28 -5 54 -25 52 -59 69 -132 67
-34 -1 -65 3 -68 7 -3 5 13 26 34 47 53 49 65 82 58 154 -9 106 -87 237 -206
348 -61 57 -77 69 -211 164 -170 119 -317 243 -530 443 -178 168 -646 643
-1000 1015 -25 26 -90 94 -145 152 -55 57 -170 178 -255 268 -85 90 -177 187
-205 215 -27 29 -60 63 -72 77 l-23 24 33 85 c19 46 51 129 72 184 20 55 41
109 46 120 8 19 102 263 154 400 54 143 259 673 290 750 4 11 9 25 11 30 3 13
191 468 214 520 10 22 43 96 73 165 98 224 219 473 305 625 74 132 121 203
224 343 248 334 255 386 98 707 -69 140 -148 249 -262 358 -139 133 -284 186
-523 191 -78 2 -155 -3 -221 -14z"/>
</g>
</svg>
